<svg height="511pt" viewBox="0 0 511.99993 511" width="511pt" xmlns="http://www.w3.org/2000/svg"><path d="m503.519531 8.84375c-11.0625-11.0625-30.824219-11.132812-42.292969-.152344l-37.070312 35.496094c-3.929688-3.148438-9.675781-2.902344-13.320312.738281-3.546876 3.546875-3.863282 9.089844-.96875 13.007813-3.359376 3.859375-3.285157 9.710937.320312 13.476562 3.679688 3.84375 9.683594 4.101563 13.6875.707032l16.347656 16.347656-55.371094 57.828125-18.78125-18.78125.449219-.433594c3.992188-3.820313 4.128907-10.15625.308594-14.144531-3.824219-3.996094-10.15625-4.128906-14.148437-.308594l-1.015626.976562c-3.828124-2.210937-8.796874-1.691406-12.074218 1.582032-3.164063 3.167968-3.761719 7.929687-1.796875 11.699218l-58.53125 56.042969c-3.75-1.886719-8.4375-1.273437-11.570313 1.859375-3.023437 3.023438-3.695312 7.496094-2.039062 11.175782l-58.621094 56.132812c-3.785156-2.011719-8.582031-1.425781-11.769531 1.761719-3.078125 3.078125-3.722657 7.65625-1.949219 11.375l-33.796875 32.359375c-24.113281-11.894532-46.660156-11.28125-59.984375 2.039062-15.121094 15.121094-13.28125 42.1875 2.492188 68.257813l-93.253907 93.257812c-5.65625 5.652344-8.769531 13.191407-8.769531 21.226563 0 8.03125 3.113281 15.570312 8.769531 21.222656 5.652344 5.652344 13.191407 8.769531 21.222657 8.769531s15.570312-3.113281 21.226562-8.769531l93.25-93.25c13.941406 8.4375 28.167969 12.890625 40.703125 12.890625 10.902344 0 20.527344-3.367187 27.5625-10.402344 13.324219-13.324219 13.9375-35.871093 2.039063-59.984375l32.371093-33.804687c1.347657.636719 2.808594.96875 4.269531.96875 2.5625 0 5.125-.976563 7.078126-2.933594 3.175781-3.179687 3.769531-7.964844 1.773437-11.742187l.535156-.558594c3.820313-3.992188 3.6875-10.324219-.304687-14.144532-3.964844-3.796874-10.242188-3.683593-14.070313.230469l-24.921875-24.921875 57.824219-55.371094 22.464844 22.460938-.085938.09375c-3.820312 3.992188-3.683593 10.324219.308594 14.144531 1.9375 1.859375 4.429687 2.78125 6.917969 2.78125 2.632812 0 5.261718-1.035156 7.226562-3.085937l.25-.261719c1.296875.578125 2.683594.875 4.074219.875 2.5625 0 5.121094-.976563 7.078125-2.929687 3.121094-3.125 3.742188-7.796876 1.871094-11.542969l56.054687-58.546875c1.4375.746094 3.015625 1.121094 4.597657 1.121094 2.5625 0 5.121093-.976563 7.074218-2.929688 3.265625-3.265625 3.792969-8.226562 1.597656-12.046875l55.714844-58.183594c1.746094 1.269531 3.804688 1.917969 5.871094 1.917969 2.558594 0 5.121094-.980469 7.074219-2.933594 3.632812-3.632812 3.882812-9.367187.753906-13.292968l35.433594-37.007813c11.222656-11.320313 11.191406-31.082031-.085938-42.359375zm-440.855469 455.003906-7.074218-21.226562 26.632812-26.628906 7.074219 21.222656zm-32.671874 28.503906c-2.6875 0-5.199219-1.03125-7.074219-2.90625s-2.90625-4.386718-2.90625-7.074218c0-2.691406 1.03125-5.203125 2.90625-7.078125l16.851562-16.851563 7.078125 21.222656-9.78125 9.78125c-1.875 1.875-4.386718 2.90625-7.074218 2.90625zm75.125-70.957031-7.074219-21.226562 15.914062-15.910157c2.140625 2.488282 4.398438 4.945313 6.800781 7.347657 2.402344 2.398437 4.851563 4.667969 7.339844 6.808593zm93.464843-22.714843c-3.023437 3.023437-7.734375 4.570312-13.523437 4.570312-9.898438 0-22.945313-4.535156-36.121094-13.902344-.128906-.089844-.253906-.183594-.382812-.265625-4.582032-3.289062-9.171876-7.152343-13.644532-11.628906-4.476562-4.476563-8.34375-9.070313-11.632812-13.652344-.191406-.289062-.390625-.574219-.613282-.851562-14.554687-20.71875-17.109374-41.039063-8.980468-49.167969 5.804687-5.808594 17.167968-6.046875 30.160156-1.1875l-15.855469 15.183594c-1.941406 1.863281-3.054687 4.429687-3.082031 7.117187-.03125 2.691407 1.023438 5.28125 2.929688 7.1875l42.449218 42.449219c1.875 1.875 4.421875 2.929688 7.074219 2.929688h.109375c2.6875-.027344 5.253906-1.140626 7.117188-3.085938l15.183593-15.855469c4.859375 12.992188 4.621094 24.355469-1.1875 30.160157zm33.996094-93.359376-37.4375 39.097657c-.003906 0-.003906.003906-.003906.003906l-17.933594 18.726563-27.988281-27.988282 57.828125-55.375zm61.207031-108.59375 57.828125-55.375 19.394531 19.394532-55.371093 57.828125zm195.585938-159.585937c-.054688.050781-.105469.105469-.152344.15625l-35.152344 36.710937-15.710937-15.714843 36.707031-35.148438c3.910156-3.742187 11.257812-3.203125 14.308594-.152343 3.183594 3.183593 3.808594 10.339843 0 14.148437zm0 0"/><path d="m273.847656 262.222656c-3.714844 4.089844-3.414062 10.417969.671875 14.136719 1.917969 1.742187 4.328125 2.601563 6.730469 2.601563 2.71875 0 5.429688-1.105469 7.40625-3.273438l.003906-.007812c3.71875-4.085938 3.414063-10.414063-.675781-14.128907-4.089844-3.71875-10.421875-3.414062-14.136719.671875zm0 0"/><path d="m388.507812 102.179688c2.5625 0 5.121094-.976563 7.074219-2.929688l.007813-.007812c3.90625-3.90625 3.902344-10.238282-.003906-14.144532-3.90625-3.910156-10.246094-3.90625-14.152344 0-3.910156 3.90625-3.910156 10.242188 0 14.152344 1.953125 1.953125 4.511718 2.929688 7.074218 2.929688zm0 0"/></svg>