<svg version="1.1" viewBox="0.0 0.0 960.0 720.0" fill="none" stroke="none" stroke-linecap="square" stroke-miterlimit="10" xmlns:xlink="http://www.w3.org/1999/xlink" xmlns="http://www.w3.org/2000/svg"><clipPath id="p.0"><path d="m0 0l960.0 0l0 720.0l-960.0 0l0 -720.0z" clip-rule="nonzero"/></clipPath><g clip-path="url(#p.0)"><path fill="#000000" fill-opacity="0.0" d="m0 0l960.0 0l0 720.0l-960.0 0z" fill-rule="evenodd"/><path fill="#ea9999" d="m271.34488 226.35957l259.73648 0c6.713867E-4 0 0.0013427734 2.746582E-4 0.0018310547 7.6293945E-4c4.8828125E-4 4.8828125E-4 7.9345703E-4 0.001159668 7.9345703E-4 0.0018463135l-0.0026245117 264.08035c0 28.6904 -23.258148 51.948517 -51.948547 51.948517l-259.73648 0l0 0c-0.0014343262 0 -0.002609253 -0.001159668 -0.002609253 -0.0025634766l0.002609253 -264.08035l0 0c0 -28.6904 23.258148 -51.948563 51.948547 -51.948563z" fill-rule="evenodd"/><path stroke="#cbe896" stroke-width="3.0" stroke-linejoin="round" stroke-linecap="butt" d="m271.34488 226.35957l259.73648 0c6.713867E-4 0 0.0013427734 2.746582E-4 0.0018310547 7.6293945E-4c4.8828125E-4 4.8828125E-4 7.9345703E-4 0.001159668 7.9345703E-4 0.0018463135l-0.0026245117 264.08035c0 28.6904 -23.258148 51.948517 -51.948547 51.948517l-259.73648 0l0 0c-0.0014343262 0 -0.002609253 -0.001159668 -0.002609253 -0.0025634766l0.002609253 -264.08035l0 0c0 -28.6904 23.258148 -51.948563 51.948547 -51.948563z" fill-rule="evenodd"/><path fill="#000000" fill-opacity="0.0" d="m262.05774 226.35957l226.36221 0l0 202.86613l-226.36221 0z" fill-rule="evenodd"/><path fill="#cbe896" d="m294.4171 313.1127q-10.5625 0 -15.0 -5.546875q-4.4375 -5.5625 -4.4375 -16.046875l0 -23.359375q0 -10.71875 4.390625 -16.203125q4.40625 -5.484375 15.046875 -5.484375q10.15625 0 14.390625 4.890625q4.25 4.875 4.25 13.84375l0 5.59375l-14.0 0l0 -6.484375q0 -3.75 -0.796875 -5.75q-0.796875 -2.0 -3.84375 -2.0q-3.046875 0 -4.0 2.125q-0.953125 2.109375 -0.953125 5.875l0 30.46875q0 3.84375 1.0 5.890625q1.0 2.03125 3.953125 2.03125q2.953125 0 3.796875 -2.03125q0.84375 -2.046875 0.84375 -5.890625l0 -6.796875l14.0 0l0 5.609375q0 9.109375 -4.25 14.1875q-4.234375 5.078125 -14.390625 5.078125zm35.602478 -65.75l16.3125 0l12.078125 64.796875l-13.1875 0l-2.171875 -13.6875l-9.515625 0l-2.234375 13.6875l-13.515625 0l12.234375 -64.796875zm11.671875 42.5625l-3.4375 -25.28125l-3.4375 25.28125l6.875 0zm23.283081 -42.5625l14.328125 0l0 55.109375l14.875 0l0 9.6875l-29.203125 0l0 -64.796875z" fill-rule="nonzero"/><path fill="#cbe896" d="m275.8546 343.3627l29.125 0l0 9.75l-14.796875 0l0 16.09375l11.28125 0l0 9.90625l-11.28125 0l0 19.359375l14.953125 0l0 9.6875l-29.28125 0l0 -64.796875zm35.75998 0l10.078125 0l13.28125 31.203125l0 -31.203125l11.84375 0l0 64.796875l-9.6875 0l-13.265625 -33.59375l0 33.59375l-12.25 0l0 -64.796875z" fill-rule="nonzero"/><path fill="#cbe896" d="m275.8546 439.3627l16.40625 0q8.390625 0 13.109375 2.078125q4.734375 2.078125 6.6875 6.515625q1.953125 4.4375 1.953125 11.890625l0 23.515625q0 7.515625 -1.953125 12.0q-1.953125 4.484375 -6.640625 6.640625q-4.671875 2.15625 -13.0 2.15625l-16.5625 0l0 -64.796875zm16.5625 54.875q3.125 0 4.59375 -0.921875q1.484375 -0.921875 1.875 -2.640625q0.40625 -1.71875 0.40625 -5.078125l0 -28.234375q0 -3.125 -0.4375 -4.765625q-0.4375 -1.640625 -1.921875 -2.4375q-1.46875 -0.796875 -4.59375 -0.796875l-2.15625 0l0 44.875l2.234375 0zm39.442474 -54.875l16.3125 0l12.078125 64.796875l-13.1875 0l-2.171875 -13.6875l-9.515625 0l-2.234375 13.6875l-13.515625 0l12.234375 -64.796875zm11.671875 42.5625l-3.4375 -25.28125l-3.4375 25.28125l6.875 0zm42.653687 9.921875l12.3125 0l0 12.3125l-12.3125 0l0 -12.3125z" fill-rule="nonzero"/></g></svg>